<svg width="31" height="31" viewBox="0 0 31 31" fill="none" xmlns="http://www.w3.org/2000/svg">
<g id="Group 124">
<circle id="Ellipse 5" cx="15.5" cy="15.5" r="15.5" fill="black"/>
<circle id="Ellipse 6" cx="7" cy="18" r="1.5" fill="black" stroke="#FDFDFD"/>
<path id="Rectangle 126" d="M0 13.5L6 15L25 15.5L31 14V15L25.5 16.5L6 16L0 14.5V13.5Z" fill="#E09D73"/>
<circle id="Ellipse 7" cx="24" cy="18" r="1.5" fill="black" stroke="white"/>
<path id="SKR" d="M11.2095 8.54545C11.1669 8.18561 10.9941 7.90625 10.6911 7.70739C10.388 7.50852 10.0163 7.40909 9.57599 7.40909C9.25402 7.40909 8.9723 7.46117 8.73082 7.56534C8.49171 7.66951 8.30469 7.81274 8.16974 7.99503C8.03717 8.17732 7.97088 8.38447 7.97088 8.61648C7.97088 8.81061 8.01705 8.97751 8.10938 9.11719C8.20407 9.2545 8.32481 9.36932 8.47159 9.46165C8.61837 9.55161 8.77225 9.62618 8.93324 9.68537C9.09422 9.74219 9.24219 9.78835 9.37713 9.82386L10.1158 10.0227C10.3052 10.0724 10.5159 10.1411 10.7479 10.2287C10.9822 10.3163 11.206 10.4358 11.419 10.5874C11.6345 10.7365 11.812 10.9283 11.9517 11.1626C12.0914 11.397 12.1612 11.6847 12.1612 12.0256C12.1612 12.4186 12.0582 12.7737 11.8523 13.0909C11.6487 13.4081 11.3504 13.6603 10.9574 13.8473C10.5668 14.0343 10.0921 14.1278 9.53338 14.1278C9.01255 14.1278 8.56155 14.0438 8.1804 13.8757C7.80161 13.7076 7.50331 13.4732 7.28551 13.1726C7.07008 12.8719 6.94815 12.5227 6.91974 12.125H7.82884C7.85251 12.3996 7.94484 12.6269 8.10582 12.8068C8.26918 12.9844 8.47514 13.117 8.72372 13.2045C8.97467 13.2898 9.24455 13.3324 9.53338 13.3324C9.86955 13.3324 10.1714 13.2779 10.4389 13.169C10.7064 13.0578 10.9183 12.9039 11.0746 12.7074C11.2308 12.5085 11.3089 12.2765 11.3089 12.0114C11.3089 11.7699 11.2415 11.5734 11.1065 11.4219C10.9716 11.2704 10.794 11.1473 10.5739 11.0526C10.3537 10.9579 10.1158 10.875 9.86009 10.804L8.9652 10.5483C8.39702 10.3849 7.94721 10.1518 7.61577 9.84872C7.28433 9.54569 7.11861 9.14915 7.11861 8.65909C7.11861 8.25189 7.22869 7.89678 7.44886 7.59375C7.6714 7.28835 7.9697 7.05161 8.34375 6.88352C8.72017 6.71307 9.14039 6.62784 9.6044 6.62784C10.0732 6.62784 10.4898 6.71188 10.8544 6.87997C11.219 7.04569 11.5078 7.27296 11.7209 7.56179C11.9363 7.85062 12.05 8.1785 12.0618 8.54545H11.2095ZM13.6092 14V6.72727H14.4899V10.3352H14.5751L17.8422 6.72727H18.9927L15.9387 10.0085L18.9927 14H17.9274L15.399 10.6193L14.4899 11.642V14H13.6092ZM20.1326 14V6.72727H22.59C23.1582 6.72727 23.6246 6.82434 23.9892 7.01847C24.3538 7.21023 24.6236 7.47419 24.7988 7.81037C24.974 8.14654 25.0616 8.52888 25.0616 8.95739C25.0616 9.38589 24.974 9.76586 24.7988 10.0973C24.6236 10.4287 24.3549 10.6892 23.9927 10.8786C23.6305 11.0656 23.1677 11.1591 22.6042 11.1591H20.6156V10.3636H22.5758C22.9641 10.3636 23.2766 10.3068 23.5133 10.1932C23.7524 10.0795 23.9252 9.91856 24.0318 9.71023C24.1407 9.49953 24.1951 9.24858 24.1951 8.95739C24.1951 8.66619 24.1407 8.41169 24.0318 8.19389C23.9229 7.97609 23.7489 7.808 23.5098 7.68963C23.2707 7.56889 22.9546 7.50852 22.5616 7.50852H21.0133V14H20.1326ZM23.5559 10.733L25.3457 14H24.323L22.5616 10.733H23.5559Z" fill="white"/>
<line id="Line 1" x1="11" y1="22.5" x2="4" y2="22.5" stroke="white"/>
<line id="Line 2" x1="19" y1="22.5" x2="12" y2="22.5" stroke="white"/>
<line id="Line 3" x1="28" y1="22.5" x2="21" y2="22.5" stroke="white"/>
</g>
</svg>
